<mxfile host="app.diagrams.net" modified="2021-04-16T01:48:25.942Z" agent="5.0 (Windows NT 10.0; Win64; x64) AppleWebKit/537.36 (KHTML, like Gecko) Chrome/89.0.4389.128 Safari/537.36" etag="KuBlXadFqwJCdBZJGHgg" version="14.4.4" type="github">
  <diagram id="7xJONXGsA8aCS9Y3LKJp" name="Page-1">
    <mxGraphModel dx="1108" dy="450" grid="1" gridSize="10" guides="1" tooltips="1" connect="1" arrows="1" fold="1" page="1" pageScale="1" pageWidth="240" pageHeight="85" math="0" shadow="0">
      <root>
        <mxCell id="0" />
        <mxCell id="1" parent="0" />
        <mxCell id="tJiMtfJhJ-QrdYGh-e4V-16" value="loop [d : departments]" style="shape=umlFrame;whiteSpace=wrap;html=1;width=180;height=30;" vertex="1" parent="1">
          <mxGeometry x="360" y="170" width="450" height="360" as="geometry" />
        </mxCell>
        <mxCell id="tJiMtfJhJ-QrdYGh-e4V-21" value="if [e.getId == uuid]" style="shape=umlFrame;whiteSpace=wrap;html=1;width=180;height=30;" vertex="1" parent="1">
          <mxGeometry x="540" y="250" width="260" height="270" as="geometry" />
        </mxCell>
        <mxCell id="tJiMtfJhJ-QrdYGh-e4V-30" value="if [exist]" style="shape=umlFrame;whiteSpace=wrap;html=1;width=110;height=30;" vertex="1" parent="1">
          <mxGeometry x="550" y="370" width="240" height="140" as="geometry" />
        </mxCell>
        <mxCell id="tJiMtfJhJ-QrdYGh-e4V-5" value="" style="shape=umlLifeline;participant=umlActor;perimeter=lifelinePerimeter;whiteSpace=wrap;html=1;container=1;collapsible=0;recursiveResize=0;verticalAlign=top;spacingTop=36;outlineConnect=0;" vertex="1" parent="1">
          <mxGeometry x="-190" y="40" width="20" height="490" as="geometry" />
        </mxCell>
        <mxCell id="tJiMtfJhJ-QrdYGh-e4V-6" value="" style="html=1;points=[];perimeter=orthogonalPerimeter;" vertex="1" parent="tJiMtfJhJ-QrdYGh-e4V-5">
          <mxGeometry x="5" y="63" width="10" height="417" as="geometry" />
        </mxCell>
        <mxCell id="tJiMtfJhJ-QrdYGh-e4V-7" value=":SabanaPayroll" style="shape=umlLifeline;perimeter=lifelinePerimeter;whiteSpace=wrap;html=1;container=1;collapsible=0;recursiveResize=0;outlineConnect=0;" vertex="1" parent="1">
          <mxGeometry x="160" y="40" width="100" height="490" as="geometry" />
        </mxCell>
        <mxCell id="tJiMtfJhJ-QrdYGh-e4V-8" value="" style="html=1;points=[];perimeter=orthogonalPerimeter;" vertex="1" parent="tJiMtfJhJ-QrdYGh-e4V-7">
          <mxGeometry x="45" y="77" width="10" height="403" as="geometry" />
        </mxCell>
        <mxCell id="tJiMtfJhJ-QrdYGh-e4V-9" value="assigneFamilyCompesation(uuid: UUID, fnf: IFamilyCompesationFund)" style="edgeStyle=orthogonalEdgeStyle;rounded=0;orthogonalLoop=1;jettySize=auto;html=1;" edge="1" parent="1" source="tJiMtfJhJ-QrdYGh-e4V-6" target="tJiMtfJhJ-QrdYGh-e4V-7">
          <mxGeometry x="0.0298" y="10" relative="1" as="geometry">
            <Array as="points">
              <mxPoint x="-90" y="120" />
              <mxPoint x="-90" y="120" />
            </Array>
            <mxPoint as="offset" />
          </mxGeometry>
        </mxCell>
        <mxCell id="tJiMtfJhJ-QrdYGh-e4V-10" value="d :Department" style="shape=umlLifeline;perimeter=lifelinePerimeter;whiteSpace=wrap;html=1;container=1;collapsible=0;recursiveResize=0;outlineConnect=0;" vertex="1" parent="1">
          <mxGeometry x="330" y="40" width="100" height="480" as="geometry" />
        </mxCell>
        <mxCell id="tJiMtfJhJ-QrdYGh-e4V-11" value="" style="html=1;points=[];perimeter=orthogonalPerimeter;" vertex="1" parent="tJiMtfJhJ-QrdYGh-e4V-10">
          <mxGeometry x="45" y="117" width="10" height="353" as="geometry" />
        </mxCell>
        <mxCell id="tJiMtfJhJ-QrdYGh-e4V-13" value="e :Employee" style="shape=umlLifeline;perimeter=lifelinePerimeter;whiteSpace=wrap;html=1;container=1;collapsible=0;recursiveResize=0;outlineConnect=0;" vertex="1" parent="1">
          <mxGeometry x="520" y="40" width="100" height="460" as="geometry" />
        </mxCell>
        <mxCell id="tJiMtfJhJ-QrdYGh-e4V-14" value="" style="html=1;points=[];perimeter=orthogonalPerimeter;" vertex="1" parent="tJiMtfJhJ-QrdYGh-e4V-13">
          <mxGeometry x="45" y="198.5" width="10" height="251.5" as="geometry" />
        </mxCell>
        <mxCell id="tJiMtfJhJ-QrdYGh-e4V-27" value="" style="html=1;points=[];perimeter=orthogonalPerimeter;" vertex="1" parent="tJiMtfJhJ-QrdYGh-e4V-13">
          <mxGeometry x="50" y="274.25" width="10" height="40" as="geometry" />
        </mxCell>
        <mxCell id="tJiMtfJhJ-QrdYGh-e4V-28" value="exist = addCompesationFund()" style="edgeStyle=orthogonalEdgeStyle;html=1;align=left;spacingLeft=2;endArrow=block;rounded=0;entryX=1;entryY=0;" edge="1" target="tJiMtfJhJ-QrdYGh-e4V-27" parent="tJiMtfJhJ-QrdYGh-e4V-13">
          <mxGeometry x="0.1925" relative="1" as="geometry">
            <mxPoint x="55" y="274.25" as="sourcePoint" />
            <Array as="points">
              <mxPoint x="55" y="254.25" />
              <mxPoint x="80" y="254.25" />
              <mxPoint x="80" y="274.25" />
              <mxPoint x="60" y="274.25" />
            </Array>
            <mxPoint as="offset" />
          </mxGeometry>
        </mxCell>
        <mxCell id="tJiMtfJhJ-QrdYGh-e4V-17" value=":IFamilyCompesation" style="shape=umlLifeline;perimeter=lifelinePerimeter;whiteSpace=wrap;html=1;container=1;collapsible=0;recursiveResize=0;outlineConnect=0;" vertex="1" parent="1">
          <mxGeometry x="700" y="40" width="140" height="460" as="geometry" />
        </mxCell>
        <mxCell id="tJiMtfJhJ-QrdYGh-e4V-20" value="" style="html=1;points=[];perimeter=orthogonalPerimeter;" vertex="1" parent="tJiMtfJhJ-QrdYGh-e4V-17">
          <mxGeometry x="65" y="400" width="10" height="50" as="geometry" />
        </mxCell>
        <mxCell id="tJiMtfJhJ-QrdYGh-e4V-18" value="getEmployees()" style="edgeStyle=orthogonalEdgeStyle;rounded=0;orthogonalLoop=1;jettySize=auto;html=1;" edge="1" parent="1" source="tJiMtfJhJ-QrdYGh-e4V-8" target="tJiMtfJhJ-QrdYGh-e4V-11">
          <mxGeometry x="-0.0625" y="10" relative="1" as="geometry">
            <Array as="points">
              <mxPoint x="290" y="160" />
              <mxPoint x="290" y="160" />
            </Array>
            <mxPoint as="offset" />
          </mxGeometry>
        </mxCell>
        <mxCell id="tJiMtfJhJ-QrdYGh-e4V-19" value="getId()" style="edgeStyle=orthogonalEdgeStyle;rounded=0;orthogonalLoop=1;jettySize=auto;html=1;" edge="1" parent="1" source="tJiMtfJhJ-QrdYGh-e4V-11" target="tJiMtfJhJ-QrdYGh-e4V-14">
          <mxGeometry x="-0.05" y="10" relative="1" as="geometry">
            <Array as="points">
              <mxPoint x="530" y="240" />
              <mxPoint x="530" y="240" />
            </Array>
            <mxPoint as="offset" />
          </mxGeometry>
        </mxCell>
        <mxCell id="tJiMtfJhJ-QrdYGh-e4V-31" value="registerEmployee(e)" style="edgeStyle=orthogonalEdgeStyle;rounded=0;orthogonalLoop=1;jettySize=auto;html=1;" edge="1" parent="1" source="tJiMtfJhJ-QrdYGh-e4V-14" target="tJiMtfJhJ-QrdYGh-e4V-20">
          <mxGeometry y="10" relative="1" as="geometry">
            <Array as="points">
              <mxPoint x="670" y="440" />
              <mxPoint x="670" y="440" />
            </Array>
            <mxPoint as="offset" />
          </mxGeometry>
        </mxCell>
      </root>
    </mxGraphModel>
  </diagram>
</mxfile>
